<mxfile host="app.diagrams.net" modified="2023-05-31T18:50:48.717Z" agent="Mozilla/5.0 (Windows NT 10.0; Win64; x64) AppleWebKit/537.36 (KHTML, like Gecko) Chrome/113.0.0.0 Safari/537.36" etag="hVwxgsIhR-7f8f7FqYSv" version="21.3.6" type="github">
  <diagram name="Page-1" id="7a6c530e-6e37-e111-ec74-82921da8cc10">
    <mxGraphModel dx="1400" dy="792" grid="1" gridSize="10" guides="1" tooltips="1" connect="1" arrows="1" fold="1" page="1" pageScale="1.5" pageWidth="1169" pageHeight="826" background="#184380" math="0" shadow="0">
      <root>
        <mxCell id="0" style=";html=1;" />
        <mxCell id="1" style=";html=1;" parent="0" />
        <mxCell id="dqcwzsDOCsRFN5LuKzVT-29" style="edgeStyle=none;rounded=0;orthogonalLoop=1;jettySize=auto;html=1;entryX=1.037;entryY=0.107;entryDx=0;entryDy=0;entryPerimeter=0;" edge="1" parent="1" source="dqcwzsDOCsRFN5LuKzVT-1" target="dqcwzsDOCsRFN5LuKzVT-25">
          <mxGeometry relative="1" as="geometry" />
        </mxCell>
        <mxCell id="dqcwzsDOCsRFN5LuKzVT-30" style="edgeStyle=none;rounded=0;orthogonalLoop=1;jettySize=auto;html=1;entryX=0;entryY=0.217;entryDx=0;entryDy=0;entryPerimeter=0;" edge="1" parent="1" source="dqcwzsDOCsRFN5LuKzVT-1" target="dqcwzsDOCsRFN5LuKzVT-26">
          <mxGeometry relative="1" as="geometry" />
        </mxCell>
        <mxCell id="dqcwzsDOCsRFN5LuKzVT-1" value="" style="image;sketch=0;aspect=fixed;html=1;points=[];align=center;fontSize=12;image=img/lib/mscae/Application_Gateway.svg;" vertex="1" parent="1">
          <mxGeometry x="852" y="160" width="50" height="50" as="geometry" />
        </mxCell>
        <mxCell id="dqcwzsDOCsRFN5LuKzVT-12" style="edgeStyle=none;rounded=0;orthogonalLoop=1;jettySize=auto;html=1;exitX=0.02;exitY=0.96;exitDx=0;exitDy=0;exitPerimeter=0;" edge="1" parent="1" source="dqcwzsDOCsRFN5LuKzVT-2">
          <mxGeometry relative="1" as="geometry">
            <mxPoint x="740" y="420" as="targetPoint" />
          </mxGeometry>
        </mxCell>
        <mxCell id="dqcwzsDOCsRFN5LuKzVT-13" style="edgeStyle=none;rounded=0;orthogonalLoop=1;jettySize=auto;html=1;exitX=0.98;exitY=0.96;exitDx=0;exitDy=0;exitPerimeter=0;entryX=0.043;entryY=0.512;entryDx=0;entryDy=0;entryPerimeter=0;" edge="1" parent="1" source="dqcwzsDOCsRFN5LuKzVT-2">
          <mxGeometry relative="1" as="geometry">
            <mxPoint x="1002.1500000000001" y="425.60000000000014" as="targetPoint" />
          </mxGeometry>
        </mxCell>
        <mxCell id="dqcwzsDOCsRFN5LuKzVT-14" style="edgeStyle=none;rounded=0;orthogonalLoop=1;jettySize=auto;html=1;exitX=0.5;exitY=1;exitDx=0;exitDy=0;exitPerimeter=0;entryX=0.5;entryY=0;entryDx=0;entryDy=0;entryPerimeter=0;" edge="1" parent="1" source="dqcwzsDOCsRFN5LuKzVT-2" target="dqcwzsDOCsRFN5LuKzVT-3">
          <mxGeometry relative="1" as="geometry" />
        </mxCell>
        <mxCell id="dqcwzsDOCsRFN5LuKzVT-15" style="edgeStyle=none;rounded=0;orthogonalLoop=1;jettySize=auto;html=1;exitX=0.02;exitY=0.96;exitDx=0;exitDy=0;exitPerimeter=0;" edge="1" parent="1" source="dqcwzsDOCsRFN5LuKzVT-3">
          <mxGeometry relative="1" as="geometry">
            <mxPoint x="730" y="600" as="targetPoint" />
          </mxGeometry>
        </mxCell>
        <mxCell id="dqcwzsDOCsRFN5LuKzVT-2" value="App Tier - Load balancer" style="verticalLabelPosition=bottom;html=1;verticalAlign=top;align=center;strokeColor=none;fillColor=#00BEF2;shape=mxgraph.azure.azure_load_balancer;" vertex="1" parent="1">
          <mxGeometry x="852" y="350" width="50" height="35" as="geometry" />
        </mxCell>
        <mxCell id="dqcwzsDOCsRFN5LuKzVT-16" style="edgeStyle=none;rounded=0;orthogonalLoop=1;jettySize=auto;html=1;exitX=0.98;exitY=0.96;exitDx=0;exitDy=0;exitPerimeter=0;" edge="1" parent="1" source="dqcwzsDOCsRFN5LuKzVT-3">
          <mxGeometry relative="1" as="geometry">
            <mxPoint x="1000" y="596.2540322580644" as="targetPoint" />
          </mxGeometry>
        </mxCell>
        <mxCell id="dqcwzsDOCsRFN5LuKzVT-3" value="DB Tier - Load balancer&lt;br&gt;" style="verticalLabelPosition=bottom;html=1;verticalAlign=top;align=center;strokeColor=none;fillColor=#00BEF2;shape=mxgraph.azure.azure_load_balancer;" vertex="1" parent="1">
          <mxGeometry x="852" y="530" width="50" height="35" as="geometry" />
        </mxCell>
        <mxCell id="dqcwzsDOCsRFN5LuKzVT-10" style="edgeStyle=none;rounded=0;orthogonalLoop=1;jettySize=auto;html=1;exitX=0.995;exitY=0.63;exitDx=0;exitDy=0;exitPerimeter=0;entryX=0.16;entryY=0.4;entryDx=0;entryDy=0;entryPerimeter=0;" edge="1" parent="1" source="dqcwzsDOCsRFN5LuKzVT-8" target="dqcwzsDOCsRFN5LuKzVT-1">
          <mxGeometry relative="1" as="geometry" />
        </mxCell>
        <mxCell id="dqcwzsDOCsRFN5LuKzVT-18" value="Availability zone -A" style="sketch=0;outlineConnect=0;gradientColor=none;html=1;whiteSpace=wrap;fontSize=12;fontStyle=0;shape=mxgraph.aws4.group;grIcon=mxgraph.aws4.group_availability_zone;strokeColor=#E8E8E8;fillColor=none;verticalAlign=top;align=left;spacingLeft=30;fontColor=#E8E8E8;dashed=1;" vertex="1" parent="1">
          <mxGeometry x="645" y="220" width="140" height="470" as="geometry" />
        </mxCell>
        <mxCell id="dqcwzsDOCsRFN5LuKzVT-20" value="Availability zone - B" style="sketch=0;outlineConnect=0;gradientColor=none;html=1;whiteSpace=wrap;fontSize=12;fontStyle=0;shape=mxgraph.aws4.group;grIcon=mxgraph.aws4.group_availability_zone;strokeColor=#E8E8E8;fillColor=none;verticalAlign=top;align=left;spacingLeft=30;fontColor=#E8E8E8;dashed=1;" vertex="1" parent="1">
          <mxGeometry x="956" y="220" width="140" height="470" as="geometry" />
        </mxCell>
        <mxCell id="dqcwzsDOCsRFN5LuKzVT-8" value="" style="sketch=0;html=1;dashed=0;whitespace=wrap;fillColor=#2875E2;strokeColor=#ffffff;points=[[0.005,0.63,0],[0.1,0.2,0],[0.9,0.2,0],[0.5,0,0],[0.995,0.63,0],[0.72,0.99,0],[0.5,1,0],[0.28,0.99,0]];verticalLabelPosition=bottom;align=center;verticalAlign=top;shape=mxgraph.kubernetes.icon;prIcon=user" vertex="1" parent="1">
          <mxGeometry x="500" y="150" width="50" height="48" as="geometry" />
        </mxCell>
        <mxCell id="dqcwzsDOCsRFN5LuKzVT-21" value="DB - VM" style="image;sketch=0;aspect=fixed;html=1;points=[];align=center;fontSize=12;image=img/lib/mscae/Virtual_Machine.svg;" vertex="1" parent="1">
          <mxGeometry x="680" y="584" width="50" height="46" as="geometry" />
        </mxCell>
        <mxCell id="dqcwzsDOCsRFN5LuKzVT-22" value="DB - VM" style="image;sketch=0;aspect=fixed;html=1;points=[];align=center;fontSize=12;image=img/lib/mscae/Virtual_Machine.svg;" vertex="1" parent="1">
          <mxGeometry x="1000" y="584" width="50" height="46" as="geometry" />
        </mxCell>
        <mxCell id="dqcwzsDOCsRFN5LuKzVT-23" value="APP - VM" style="image;sketch=0;aspect=fixed;html=1;points=[];align=center;fontSize=12;image=img/lib/mscae/Virtual_Machine.svg;" vertex="1" parent="1">
          <mxGeometry x="1001" y="401" width="50" height="46" as="geometry" />
        </mxCell>
        <mxCell id="dqcwzsDOCsRFN5LuKzVT-24" value="APP - VM" style="image;sketch=0;aspect=fixed;html=1;points=[];align=center;fontSize=12;image=img/lib/mscae/Virtual_Machine.svg;" vertex="1" parent="1">
          <mxGeometry x="690" y="410" width="50" height="46" as="geometry" />
        </mxCell>
        <mxCell id="dqcwzsDOCsRFN5LuKzVT-25" value="WEB - VM" style="image;sketch=0;aspect=fixed;html=1;points=[];align=center;fontSize=12;image=img/lib/mscae/Virtual_Machine.svg;" vertex="1" parent="1">
          <mxGeometry x="690" y="250" width="50" height="46" as="geometry" />
        </mxCell>
        <mxCell id="dqcwzsDOCsRFN5LuKzVT-26" value="WEB - VM" style="image;sketch=0;aspect=fixed;html=1;points=[];align=center;fontSize=12;image=img/lib/mscae/Virtual_Machine.svg;" vertex="1" parent="1">
          <mxGeometry x="1000" y="250" width="50" height="46" as="geometry" />
        </mxCell>
      </root>
    </mxGraphModel>
  </diagram>
</mxfile>
